<?xml version="1.0" encoding="iso-8859-1"?>
<!-- Generator: Adobe Illustrator 19.0.0, SVG Export Plug-In . SVG Version: 6.00 Build 0)  -->
<svg xmlns="http://www.w3.org/2000/svg" xmlns:xlink="http://www.w3.org/1999/xlink" version="1.1" id="Capa_1" x="0px" y="0px" viewBox="0 0 480 480" style="enable-background:new 0 0 480 480;" xml:space="preserve" width="512px" height="512px">
<g>
	<g>
		<g>
			<path d="M373.192,276.504l-64,24c-3.125,1.171-5.194,4.159-5.192,7.496c0.074,32.717,15.471,63.511,41.6,83.2l25.6,19.2     c2.844,2.133,6.756,2.133,9.6,0l25.6-19.2c26.13-19.689,41.526-50.483,41.6-83.2c0.002-3.337-2.067-6.325-5.192-7.496l-64-24     C376.996,275.832,375.004,275.832,373.192,276.504z M431.832,313.48c-1.672,25.707-14.463,49.41-35.032,64.92L376,394l-20.8-15.6     c-20.569-15.51-33.36-39.213-35.032-64.92L376,292.544L431.832,313.48z" fill="#FFFFFF"/>
			<path d="M475.064,28.608c-0.975-0.384-2.017-0.569-3.064-0.544V28H72c-2.122,0-4.156,0.844-5.656,2.344l-64,64     C0.839,95.841-0.005,97.877,0,100v288c0,4.418,3.582,8,8,8h300.224c8.956,11.44,19.37,21.66,30.976,30.4l32,24     c2.844,2.133,6.756,2.133,9.6,0l32-24c42.205-31.81,67.075-81.55,67.2-134.4V36C480.001,32.765,478.053,29.847,475.064,28.608z      M452.688,44l-48,48H259.312l48-48H452.688z M284.688,44l-48,48h-41.376l48-48H284.688z M232,108v64h-48v-64H232z M75.312,44     h145.376l-48,48H27.312L75.312,44z M16,380V108h152v72c0,4.418,3.582,8,8,8h64c4.418,0,8-3.582,8-8v-72h152v145.336l-20.92-8.72     c-1.971-0.822-4.189-0.822-6.16,0l-96,40c-2.98,1.243-4.92,4.155-4.92,7.384c0.078,31.086,8.758,61.544,25.08,88H16z      M403.2,413.6L376,434l-27.2-20.4c-36.695-27.667-58.989-70.38-60.704-116.304L376,260.664l87.904,36.632     C462.189,343.22,439.895,385.933,403.2,413.6z M464,280l-48-20V103.312l48-48V280z" fill="#FFFFFF"/>
			<path d="M192,300h-32c-4.418,0-8,3.582-8,8v8c0.042,10.134,6.445,19.15,16,22.528V348h-16v16h48v-16h-16v-9.472     c9.555-3.378,15.958-12.394,16-22.528v-8C200,303.582,196.418,300,192,300z M176,324c-4.418,0-8-3.582-8-8h16     C184,320.418,180.418,324,176,324z" fill="#FFFFFF"/>
			<path d="M100.424,300.8l-16,8l7.152,14.32L96,320.944V364h16v-43.056l4.424,2.216l7.152-14.32l-16-8     C105.331,299.702,102.682,299.688,100.424,300.8z" fill="#FFFFFF"/>
			<path d="M52.424,300.8l-16,8l7.152,14.32L48,320.944V364h16v-43.056l4.424,2.216l7.152-14.32l-16-8     C57.331,299.702,54.682,299.688,52.424,300.8z" fill="#FFFFFF"/>
		</g>
	</g>
</g>
<g>
</g>
<g>
</g>
<g>
</g>
<g>
</g>
<g>
</g>
<g>
</g>
<g>
</g>
<g>
</g>
<g>
</g>
<g>
</g>
<g>
</g>
<g>
</g>
<g>
</g>
<g>
</g>
<g>
</g>
</svg>
