<?xml version="1.0" encoding="iso-8859-1"?>
<!-- Generator: Adobe Illustrator 19.0.0, SVG Export Plug-In . SVG Version: 6.00 Build 0)  -->
<svg xmlns="http://www.w3.org/2000/svg" xmlns:xlink="http://www.w3.org/1999/xlink" version="1.1" id="Capa_1" x="0px" y="0px" viewBox="0 0 512 512" style="enable-background:new 0 0 512 512;" xml:space="preserve" width="512px" height="512px">
<g>
	<g>
		<path d="M504.369,281.166l-11.417-18.348c-2.616-4.205-2.616-9.43,0-13.636l11.417-18.349c7.421-11.927,4.682-27.46-6.371-36.13    l-17.004-13.338c-3.897-3.056-5.684-7.966-4.663-12.813l4.452-21.148c2.894-13.746-4.992-27.406-18.344-31.773l-20.54-6.718    c-4.708-1.54-8.066-5.542-8.765-10.445l-3.049-21.395c-1.981-13.907-14.089-24.029-28.104-23.583l-21.6,0.712    c-4.953,0.167-9.475-2.45-11.809-6.818l-10.183-19.062c-6.619-12.39-21.44-17.785-34.475-12.548l-20.053,8.057    c-4.596,1.845-9.741,0.939-13.428-2.368L274.344,7.035c-10.458-9.38-26.23-9.38-36.688,0l-16.088,14.43    c-3.687,3.307-8.831,4.214-13.428,2.367l-20.053-8.057c-13.035-5.235-27.856,0.158-34.475,12.548l-10.183,19.061    c-2.334,4.368-6.856,6.981-11.809,6.818l-21.6-0.712c-14.05-0.447-26.123,9.676-28.104,23.583l-3.049,21.395    c-0.699,4.903-4.057,8.906-8.765,10.445l-20.54,6.718c-13.352,4.367-21.238,18.026-18.344,31.773l4.452,21.148    c1.02,4.847-0.767,9.756-4.664,12.813l-17.004,13.338c-11.053,8.67-13.792,24.203-6.371,36.13l11.417,18.349    c2.616,4.205,2.616,9.43,0,13.636L7.632,281.167c-7.421,11.927-4.682,27.46,6.371,36.13l17.004,13.339    c3.897,3.056,5.684,7.966,4.663,12.813l-4.452,21.148c-2.894,13.746,4.992,27.406,18.344,31.773l20.54,6.718    c4.708,1.54,8.066,5.542,8.765,10.445l3.049,21.395c1.982,13.908,14.094,24.027,28.104,23.583l21.6-0.712    c4.957-0.158,9.475,2.449,11.809,6.818l10.183,19.062c6.619,12.39,21.441,17.785,34.475,12.548l20.053-8.057    c4.595-1.847,9.74-0.94,13.428,2.368l16.088,14.429C242.886,509.656,249.442,512,256,512c6.557,0,13.116-2.345,18.344-7.035    l16.088-14.43c3.687-3.307,8.834-4.214,13.428-2.367l20.053,8.057c13.036,5.236,27.857-0.157,34.475-12.548l10.183-19.061    c2.334-4.369,6.851-6.98,11.809-6.818l21.6,0.712c14.04,0.457,26.123-9.676,28.104-23.583l3.049-21.395    c0.699-4.903,4.057-8.906,8.765-10.445l20.54-6.718c13.352-4.367,21.238-18.026,18.344-31.773l-4.452-21.148    c-1.02-4.847,0.767-9.756,4.664-12.813l17.004-13.339C509.051,308.626,511.79,293.093,504.369,281.166z M489.006,305.835    l-17.003,13.338c-8.297,6.507-12.101,16.959-9.929,27.277l4.452,21.148c1.36,6.458-2.345,12.874-8.617,14.925l-20.54,6.718    c-10.022,3.278-17.171,11.799-18.658,22.236l-3.049,21.395c-0.931,6.533-6.609,11.296-13.202,11.078l-21.6-0.712    c-10.549-0.341-20.171,5.214-25.138,14.514l-10.183,19.061c-3.109,5.82-10.071,8.356-16.195,5.895l-20.053-8.057    c-9.783-3.929-20.737-1.999-28.586,5.041l-16.088,14.43c-4.912,4.406-12.321,4.406-17.233,0l-16.088-14.429    c-5.159-4.627-11.657-7.047-18.284-7.047c-3.457,0-6.949,0.659-10.303,2.006l-20.053,8.057c-6.124,2.46-13.086-0.074-16.195-5.894    l-10.183-19.062c-4.968-9.299-14.615-14.85-25.138-14.514l-21.6,0.712c-6.606,0.214-12.271-4.545-13.202-11.078l-3.049-21.395    c-1.487-10.438-8.637-18.958-18.658-22.236l-20.54-6.718c-6.272-2.051-9.976-8.468-8.617-14.925l4.452-21.148    c2.172-10.317-1.632-20.769-9.928-27.276l-17.004-13.338c-5.192-4.073-6.478-11.37-2.992-16.973l11.417-18.349    c5.57-8.952,5.57-20.075,0-29.027l-11.417-18.349c-3.486-5.603-2.199-12.899,2.992-16.972l17.003-13.338    c8.297-6.507,12.101-16.959,9.929-27.277l-4.452-21.147c-1.36-6.458,2.345-12.874,8.617-14.925l20.54-6.718    c10.022-3.278,17.171-11.799,18.658-22.236l3.049-21.395c0.931-6.533,6.605-11.282,13.202-11.078l21.6,0.712    c10.531,0.331,20.17-5.215,25.138-14.514l10.183-19.061c3.11-5.82,10.071-8.356,16.195-5.895l20.053,8.057    c9.783,3.929,20.736,1.999,28.586-5.041l16.088-14.43c4.912-4.406,12.321-4.406,17.233,0l16.088,14.429    c7.849,7.04,18.803,8.971,28.586,5.041l20.053-8.057c6.121-2.462,13.085,0.074,16.195,5.894l10.183,19.062    c4.968,9.299,14.605,14.854,25.138,14.514l21.6-0.712c6.59-0.215,12.271,4.544,13.202,11.078l3.049,21.395    c1.487,10.438,8.637,18.958,18.658,22.236l20.54,6.718c6.272,2.051,9.976,8.468,8.617,14.925l-4.452,21.147    c-2.172,10.317,1.632,20.769,9.928,27.276l17.004,13.338c5.192,4.073,6.478,11.37,2.992,16.973l-11.417,18.349    c-5.57,8.952-5.57,20.075,0,29.027l11.417,18.349C495.485,294.466,494.198,301.762,489.006,305.835z" fill="#FFFFFF"/>
	</g>
</g>
<g>
	<g>
		<path d="M442.414,274.206c-3.988-0.545-7.656,2.252-8.198,6.238c-5.801,42.707-26.909,81.994-59.438,110.624    c-32.822,28.887-75.005,44.795-118.778,44.795s-85.957-15.909-118.778-44.796c-32.529-28.629-53.637-67.916-59.438-110.624    c-0.541-3.986-4.213-6.78-8.198-6.238c-3.986,0.541-6.779,4.212-6.237,8.198c6.272,46.18,29.09,88.655,64.249,119.599    c35.483,31.229,81.084,48.428,128.403,48.428s92.92-17.199,128.403-48.428c35.159-30.944,57.977-73.419,64.249-119.599    C449.194,278.418,446.401,274.747,442.414,274.206z" fill="#FFFFFF"/>
	</g>
</g>
<g>
	<g>
		<path d="M448.624,229.384c-6.318-46.132-29.152-88.555-64.297-119.454C348.856,78.744,303.282,61.569,256,61.569    c-47.293,0-92.876,17.182-128.35,48.381c-35.149,30.913-57.978,73.352-64.282,119.498c-0.544,3.986,2.245,7.659,6.231,8.204    c0.334,0.046,0.667,0.068,0.995,0.068c3.585,0,6.709-2.648,7.208-6.299c5.829-42.677,26.949-81.931,59.468-110.531    C170.084,92.031,212.25,76.137,256,76.137c43.739,0,85.898,15.886,118.708,44.733c32.515,28.587,53.64,67.827,59.482,110.49    c0.546,3.986,4.221,6.779,8.205,6.229C446.381,237.043,449.169,233.37,448.624,229.384z" fill="#FFFFFF"/>
	</g>
</g>
<g>
	<g>
		<path d="M316.254,246.908c-22.256,0-39.02,9.538-39.02,35.552v42.778c0,26.013,16.764,35.552,39.02,35.552    c21.967,0,39.02-9.539,39.02-35.552V282.46C355.274,256.446,338.221,246.908,316.254,246.908z M334.463,325.238    c0,11.851-6.937,17.053-18.209,17.053s-17.921-5.202-17.921-17.053V282.46h0c0-11.851,6.649-17.053,17.921-17.053    c11.272,0,18.209,5.202,18.209,17.053V325.238z" fill="#FFFFFF"/>
	</g>
</g>
<g>
	<g>
		<path d="M188.499,148.634c-22.256,0-39.021,9.539-39.021,35.552v42.778c0,26.014,16.765,35.552,39.021,35.552    c21.966,0,39.02-9.538,39.02-35.552v-42.778C227.519,158.173,210.465,148.634,188.499,148.634z M206.708,226.964    c0,11.851-6.937,17.053-18.209,17.053c-11.273,0-17.921-5.202-17.921-17.053v-42.778c0-11.851,6.648-17.053,17.921-17.053    c11.272,0,18.209,5.202,18.209,17.053V226.964z" fill="#FFFFFF"/>
	</g>
</g>
<g>
	<g>
		<path d="M304.982,137.362c-3.469,0-6.937,1.445-8.672,5.202L190.232,355.009c-0.867,1.445-1.156,2.891-1.156,4.336    c0,5.202,4.625,10.694,11.273,10.694c4.047,0,8.093-2.023,9.828-5.492L316.254,152.97c0.578-1.446,0.867-2.891,0.867-4.625    C317.121,141.697,310.763,137.362,304.982,137.362z" fill="#FFFFFF"/>
	</g>
</g>
<g>
</g>
<g>
</g>
<g>
</g>
<g>
</g>
<g>
</g>
<g>
</g>
<g>
</g>
<g>
</g>
<g>
</g>
<g>
</g>
<g>
</g>
<g>
</g>
<g>
</g>
<g>
</g>
<g>
</g>
</svg>
