<?xml version="1.0" encoding="iso-8859-1"?>
<!-- Generator: Adobe Illustrator 19.0.0, SVG Export Plug-In . SVG Version: 6.00 Build 0)  -->
<svg xmlns="http://www.w3.org/2000/svg" xmlns:xlink="http://www.w3.org/1999/xlink" version="1.1" id="Capa_1" x="0px" y="0px" viewBox="0 0 512 512" style="enable-background:new 0 0 512 512;" xml:space="preserve" width="512px" height="512px">
<g>
	<g>
		<g>
			<path d="M486.4,38.4H25.6C11.468,38.415,0.015,49.868,0,64v307.2c0.015,14.132,11.468,25.585,25.6,25.6h86.043     c7.065,43.697,67.917,76.8,144.357,76.8s137.293-33.103,144.357-76.8H486.4c14.132-0.015,25.585-11.468,25.6-25.6V64     C511.985,49.868,500.532,38.415,486.4,38.4z M256,456.533c-69.383,0-128-31.258-128-68.267S186.617,320,256,320     s128,31.258,128,68.267S325.383,456.533,256,456.533z M494.933,371.2c-0.005,4.711-3.822,8.529-8.533,8.533h-86.043     c-7.064-43.697-67.917-76.8-144.357-76.8s-137.293,33.103-144.357,76.8H25.6c-4.711-0.005-8.529-3.822-8.533-8.533v-85.333     h477.867V371.2z M494.933,268.8H17.067V166.4h477.867V268.8z M494.933,149.333H17.067V64c0.005-4.711,3.822-8.529,8.533-8.533     h460.8c4.711,0.005,8.529,3.822,8.533,8.533V149.333z" fill="#FFFFFF"/>
			<path d="M229.44,395.526c10.684-3.291,17.987-13.147,18.027-24.326c-0.015-14.132-11.468-25.585-25.6-25.6h-25.6     c-2.263-0.001-4.434,0.898-6.035,2.499c-1.6,1.6-2.499,3.771-2.499,6.035V422.4c0,4.713,3.82,8.533,8.533,8.533     s8.533-3.82,8.533-8.533v-25.6h4.271l23.038,30.717c1.825,2.448,4.818,3.734,7.85,3.372c3.032-0.362,5.639-2.316,6.836-5.125     s0.802-6.043-1.036-8.481L229.44,395.526z M221.867,379.733H204.8v-17.067h17.067c4.713,0,8.533,3.82,8.533,8.533     S226.58,379.733,221.867,379.733z" fill="#FFFFFF"/>
			<path d="M315.733,345.6c-2.263-0.001-4.434,0.898-6.035,2.499c-1.6,1.6-2.499,3.771-2.499,6.035v51.2     c-0.005,4.711-3.822,8.529-8.533,8.533h-8.533c-4.711-0.005-8.529-3.823-8.533-8.533v-51.2c0-4.713-3.821-8.533-8.533-8.533     c-4.713,0-8.533,3.82-8.533,8.533v51.2c0.015,14.132,11.468,25.585,25.6,25.6h8.533c14.132-0.015,25.585-11.468,25.6-25.6v-51.2     c0.001-2.263-0.898-4.434-2.499-6.035C320.168,346.498,317.997,345.599,315.733,345.6z" fill="#FFFFFF"/>
		</g>
	</g>
</g>
<g>
</g>
<g>
</g>
<g>
</g>
<g>
</g>
<g>
</g>
<g>
</g>
<g>
</g>
<g>
</g>
<g>
</g>
<g>
</g>
<g>
</g>
<g>
</g>
<g>
</g>
<g>
</g>
<g>
</g>
</svg>
